<svg width="1080" height="1080" viewBox="0 0 1080 1080" fill="none" xmlns="http://www.w3.org/2000/svg">
<path d="M863.343 221.581L860.061 219.939L858.419 216.657C805.897 85.3495 681.155 0 540 0C398.845 0 274.103 85.3495 221.581 216.657L219.939 219.939L216.657 221.581C85.3495 274.103 0 398.845 0 540C0 681.155 85.3495 805.897 216.657 858.419L219.939 860.061L221.581 863.343C274.103 994.65 398.845 1080 540 1080C681.155 1080 805.897 994.65 858.419 863.343L860.061 860.061L863.343 858.419C994.65 805.897 1080 681.155 1080 540C1080 398.845 994.65 274.103 863.343 221.581ZM323.343 155.927C377.508 93.5562 456.292 57.4468 540 57.4468C623.708 57.4468 702.492 93.5562 756.656 155.927C763.222 164.134 764.863 173.982 759.939 182.188C755.015 190.395 746.809 196.96 736.961 196.96C671.307 196.96 607.295 215.015 553.131 249.483C548.207 252.766 544.924 252.766 540 252.766C535.076 252.766 530.152 251.125 526.869 249.483C472.705 215.015 408.693 196.96 343.04 196.96C333.191 196.96 323.343 192.036 320.061 182.188C315.137 172.34 316.778 162.492 323.343 155.927ZM257.69 295.441C260.973 275.745 275.745 260.973 295.441 257.69C311.854 254.407 328.267 254.407 343.04 254.407C408.693 254.407 471.064 275.745 521.945 316.778C531.793 324.985 546.565 324.985 558.055 316.778C608.936 275.745 669.666 254.407 735.319 254.407C751.733 254.407 768.146 256.049 782.918 257.69C802.614 260.973 817.386 275.745 820.669 295.441C823.951 311.854 823.951 328.267 823.951 343.04C823.951 374.225 819.027 405.41 809.179 436.596C804.255 449.726 792.766 461.216 779.635 466.14C764.863 471.064 750.091 467.781 738.602 459.574C679.514 416.9 610.578 395.562 538.359 395.562C466.14 395.562 397.204 418.541 338.116 459.574C329.909 466.14 320.061 467.781 311.854 467.781C306.93 467.781 302.006 467.781 297.082 466.14C282.31 461.216 272.462 451.368 267.538 436.596C257.69 407.052 252.766 375.866 252.766 343.04C252.766 326.626 254.407 310.213 257.69 295.441ZM723.83 540C723.83 554.772 715.623 569.544 704.134 577.751C656.535 612.219 599.088 628.632 540 628.632C480.912 628.632 425.106 610.578 375.866 577.751C362.736 569.544 356.17 554.772 356.17 540C356.17 525.228 364.377 510.456 375.866 502.249C423.465 467.781 480.912 451.368 540 451.368C599.088 451.368 654.894 469.423 704.134 502.249C715.623 510.456 723.83 525.228 723.83 540ZM196.96 736.961C196.96 746.809 192.036 756.657 182.188 759.939C178.906 761.581 175.623 761.581 172.34 761.581C165.775 761.581 160.851 759.939 155.927 755.015C93.5562 700.851 57.4468 622.067 57.4468 538.359C57.4468 454.65 93.5562 375.866 155.927 321.702C164.134 315.137 173.982 313.495 182.188 318.419C192.036 323.343 196.96 331.55 196.96 341.398C196.96 407.052 215.015 469.422 249.483 525.228C254.407 533.435 254.407 543.283 249.483 551.489C215.015 607.295 196.96 671.307 196.96 736.961ZM756.656 924.073C702.492 986.444 623.708 1022.55 540 1022.55C456.292 1022.55 377.508 986.444 323.343 924.073C316.778 915.866 315.137 906.018 320.061 897.812C324.985 887.964 333.191 883.039 343.04 883.039C408.693 883.039 472.705 864.985 526.869 830.517C535.076 825.593 544.924 825.593 554.772 830.517C608.936 864.985 672.948 883.039 738.602 883.039C748.45 883.039 758.298 887.964 761.581 897.812C763.222 906.018 763.222 917.508 756.656 924.073ZM822.31 784.559C819.027 804.255 804.255 819.027 784.559 822.31C768.146 825.593 751.733 825.593 736.961 825.593C671.307 825.593 608.936 804.255 558.055 763.222C548.207 755.015 533.435 755.015 523.587 763.222C472.705 804.255 410.334 825.593 344.681 825.593C328.267 825.593 311.854 823.951 297.082 822.31C277.386 819.027 262.614 804.255 259.331 784.559C256.049 768.146 256.049 751.733 256.049 736.961C256.049 705.775 260.973 674.59 270.821 643.404C275.745 630.274 287.234 618.784 300.365 613.86C315.137 608.936 329.909 612.219 341.398 620.426C400.486 663.1 469.422 684.438 541.641 684.438C613.86 684.438 682.796 661.459 741.885 620.426C753.374 612.219 768.146 608.936 782.918 613.86C797.69 618.784 807.538 628.632 812.462 643.404C822.31 672.948 827.234 704.134 827.234 736.961C825.593 753.374 825.593 768.146 822.31 784.559ZM924.073 756.656C919.149 759.939 914.225 763.222 907.66 763.222C904.377 763.222 901.094 763.222 897.812 761.581C887.964 756.657 883.039 748.45 883.039 738.602C883.039 672.948 864.985 610.578 830.517 554.772C825.593 546.565 825.593 536.717 830.517 528.511C864.985 474.347 883.039 410.334 883.039 344.681C883.039 334.833 887.964 324.985 897.812 321.702C906.018 316.778 917.508 318.419 924.073 324.985C986.444 379.149 1022.55 457.933 1022.55 541.641C1022.55 622.067 986.444 700.851 924.073 756.656Z" fill="black"/>
</svg>
